<svg id="b0c703fa-ea28-426b-bc02-ec8e6fc289ec" data-name="Layer 1" xmlns="http://www.w3.org/2000/svg" viewBox="0 0 133.94 45.64"><path d="M182.61,26.6a.17.17,0,0,0,0-.34c-4.25-.63-18.33-2.38-26.24.93-9.39,3.93-3.2,16.88,23.27,25.51l0,0-.11,0C176.82,51.62,127.44,33,182.61,26.6Z" transform="translate(-51.36 -14.68)" fill="gold"/><path d="M185.26,46.33h-.12c-3.07-.06-59.43-1.6-7.24-31.3a.19.19,0,0,0-.12-.35c-4.05.89-17.75,4.25-24.71,10.68a3.37,3.37,0,0,0-5.32-.19,8.69,8.69,0,0,0-1.23-.06l-.06.12c1.13.2,2,1.9,2.11,3.57a16,16,0,0,0,2.71,7.56c.11.16.22.31.34.46l0,.06c4.25,5.45,15.51,9.93,33.63,9.49Z" transform="translate(-51.36 -14.68)" fill="#0057b7"/><path d="M51.36,39.93c0-.19.1-.28.3-.28h1c.2,0,.3.09.3.28V53.16a1.69,1.69,0,0,0,.32,1.09,1.37,1.37,0,0,0,1.08.38h6.25q.3,0,.3.27v.64c0,.17-.09.26-.28.28q-1.35.12-2.82.15T54.7,56a6.61,6.61,0,0,1-1.61-.16,2.22,2.22,0,0,1-1-.5,1.78,1.78,0,0,1-.54-.91A5,5,0,0,1,51.36,53Z" transform="translate(-51.36 -14.68)" fill="#1c2b39"/><path d="M70.45,55.52a9.34,9.34,0,0,1-1.62.3,17.53,17.53,0,0,1-1.78.09q-5.88,0-5.88-6v-.5a6,6,0,0,1,1.4-4.22,5.1,5.1,0,0,1,3.91-1.5,6.32,6.32,0,0,1,2.18.34,4.1,4.1,0,0,1,1.56,1,3.91,3.91,0,0,1,.94,1.49,5.34,5.34,0,0,1,.33,1.9,2.17,2.17,0,0,1-.72,1.83,3.4,3.4,0,0,1-2.16.56H62.73A4.38,4.38,0,0,0,64,53.67a4.68,4.68,0,0,0,3.24,1c.53,0,1.07,0,1.6-.07s1-.12,1.54-.21c.22-.05.32,0,.32.23v.62A.3.3,0,0,1,70.45,55.52Zm-1.67-6.06a1.45,1.45,0,0,0,.9-.23,1.06,1.06,0,0,0,.29-.85,3.4,3.4,0,0,0-.91-2.59,3.6,3.6,0,0,0-2.58-.86,3.38,3.38,0,0,0-2.72,1.17,5.18,5.18,0,0,0-1,3.36Z" transform="translate(-51.36 -14.68)" fill="#1c2b39"/><path d="M74.77,55.45c0,.19-.1.28-.29.28h-.92c-.2,0-.3-.09-.3-.28V45.12a.9.9,0,0,1,.64-1,13.78,13.78,0,0,1,4-.5,5.76,5.76,0,0,1,3.87,1.06A4.31,4.31,0,0,1,83,48.1v7.35a.24.24,0,0,1-.28.28h-.94c-.2,0-.3-.09-.3-.28V48.17a3.15,3.15,0,0,0-.86-2.5,4.43,4.43,0,0,0-2.88-.74,12.94,12.94,0,0,0-3,.32Z" transform="translate(-51.36 -14.68)" fill="#1c2b39"/><path d="M87,55.45c0,.19-.1.28-.3.28h-.92c-.19,0-.29-.09-.29-.28V45.12a.9.9,0,0,1,.64-1,13.78,13.78,0,0,1,4-.5A5.79,5.79,0,0,1,94,44.71a4.34,4.34,0,0,1,1.2,3.39v7.35c0,.19-.09.28-.27.28H94c-.2,0-.3-.09-.3-.28V48.17a3.15,3.15,0,0,0-.86-2.5,4.48,4.48,0,0,0-2.89-.74,12.91,12.91,0,0,0-3,.32Z" transform="translate(-51.36 -14.68)" fill="#1c2b39"/><path d="M105.79,44.11c0-.19.1-.28.3-.28H107c.2,0,.3.09.3.28V54.44a.91.91,0,0,1-.65,1,14.13,14.13,0,0,1-4,.5,5.74,5.74,0,0,1-3.87-1.07,4.31,4.31,0,0,1-1.2-3.38V44.11c0-.19.09-.28.27-.28h1c.2,0,.29.09.29.28v7.28a3.11,3.11,0,0,0,.87,2.5,4.43,4.43,0,0,0,2.88.74,12.3,12.3,0,0,0,3-.33Z" transform="translate(-51.36 -14.68)" fill="#1c2b39"/><path d="M107.27,60.11a.31.31,0,0,1-.25-.34V59.2c0-.19.09-.27.27-.26a4.5,4.5,0,0,0,.56.07c.21,0,.42,0,.64,0a1.53,1.53,0,0,0,1.14-.37,2,2,0,0,0,.35-1.33V44.11c0-.19.1-.28.3-.28h.92c.2,0,.3.09.3.28V56.92a7.9,7.9,0,0,1-.12,1.46,3,3,0,0,1-.4,1.07,1.72,1.72,0,0,1-.78.65,3,3,0,0,1-1.25.22A6.23,6.23,0,0,1,107.27,60.11Z" transform="translate(-51.36 -14.68)" fill="#1c2b39"/><path d="M122.63,55.45a16.31,16.31,0,0,1-2,.34,21.77,21.77,0,0,1-2.25.12,10.27,10.27,0,0,1-2.4-.23,4.12,4.12,0,0,1-1.58-.68,2.5,2.5,0,0,1-.86-1.12,4.26,4.26,0,0,1-.26-1.58,3.23,3.23,0,0,1,1.14-2.72,5.35,5.35,0,0,1,3.31-.88c.34,0,.69,0,1.05,0s.71.07,1.07.13.68.13,1,.21.62.16.89.25v-.69a8.1,8.1,0,0,0-.16-1.77,2.25,2.25,0,0,0-.61-1.14,2.56,2.56,0,0,0-1.23-.62,8.59,8.59,0,0,0-2-.19c-.5,0-1,0-1.56.07s-1,.11-1.47.18a.33.33,0,0,1-.22,0,.17.17,0,0,1-.1-.18v-.64a.26.26,0,0,1,.21-.26,11.36,11.36,0,0,1,1.64-.32,14.24,14.24,0,0,1,1.87-.11,9.59,9.59,0,0,1,2.45.27,3.78,3.78,0,0,1,1.59.85,3.18,3.18,0,0,1,.86,1.44,6.79,6.79,0,0,1,.27,2v6.29A.83.83,0,0,1,122.63,55.45Zm-4.15-.82c.56,0,1.13,0,1.7-.07a9.9,9.9,0,0,0,1.6-.26h0v-4a11.12,11.12,0,0,0-1.63-.26,17.21,17.21,0,0,0-1.77-.08,5.17,5.17,0,0,0-2.74.54,2.33,2.33,0,0,0,0,3.57A5.65,5.65,0,0,0,118.48,54.63Z" transform="translate(-51.36 -14.68)" fill="#1c2b39"/><path d="M134.34,55.45a16.31,16.31,0,0,1-2,.34,21.82,21.82,0,0,1-2.26.12,10.38,10.38,0,0,1-2.4-.23,4.14,4.14,0,0,1-1.57-.68,2.5,2.5,0,0,1-.86-1.12A4.26,4.26,0,0,1,125,52.3a3.23,3.23,0,0,1,1.14-2.72,5.35,5.35,0,0,1,3.31-.88c.34,0,.69,0,1.05,0s.71.07,1.07.13.68.13,1,.21.62.16.89.25v-.69a8.1,8.1,0,0,0-.16-1.77,2.25,2.25,0,0,0-.61-1.14,2.56,2.56,0,0,0-1.23-.62,8.59,8.59,0,0,0-2-.19c-.5,0-1,0-1.56.07s-1,.11-1.47.18a.33.33,0,0,1-.22,0,.17.17,0,0,1-.1-.18v-.64a.26.26,0,0,1,.2-.26,11.79,11.79,0,0,1,1.65-.32,14.24,14.24,0,0,1,1.87-.11,9.59,9.59,0,0,1,2.45.27,3.78,3.78,0,0,1,1.59.85,3.18,3.18,0,0,1,.86,1.44,6.79,6.79,0,0,1,.27,2v6.29A.83.83,0,0,1,134.34,55.45Zm-4.15-.82c.56,0,1.13,0,1.7-.07a9.9,9.9,0,0,0,1.6-.26h0v-4a11.12,11.12,0,0,0-1.63-.26,17.21,17.21,0,0,0-1.77-.08,5.17,5.17,0,0,0-2.74.54,2.33,2.33,0,0,0,0,3.57A5.65,5.65,0,0,0,130.19,54.63Z" transform="translate(-51.36 -14.68)" fill="#1c2b39"/><path d="M141.58,43.65a4.41,4.41,0,0,1,2.89.85,7.5,7.5,0,0,1,1.77-.62,8.89,8.89,0,0,1,2-.23,4.54,4.54,0,0,1,3,.86,3.34,3.34,0,0,1,1.05,2.74v8.2c0,.19-.1.28-.3.28h-.92c-.2,0-.3-.09-.3-.28V47.51a2.48,2.48,0,0,0-.69-2,3.17,3.17,0,0,0-2-.54,7.22,7.22,0,0,0-2.9.58,4.06,4.06,0,0,1,.35,1.74v8.2c0,.19-.1.28-.3.28h-.92c-.2,0-.3-.09-.3-.28V47.51a2.56,2.56,0,0,0-.65-2,3,3,0,0,0-2-.57,12.37,12.37,0,0,0-1.35.08,10.67,10.67,0,0,0-1.25.24v10.2c0,.19-.1.28-.3.28h-.91c-.2,0-.3-.09-.3-.28V45.12a.9.9,0,0,1,.64-1,11,11,0,0,1,1.75-.38A14.71,14.71,0,0,1,141.58,43.65Z" transform="translate(-51.36 -14.68)" fill="#1c2b39"/><path d="M90.7,30.87v.74H88.6v5.76h-.88V31.61H85.61v-.74Z" transform="translate(-51.36 -14.68)" fill="#1c2b39"/><path d="M94.5,37.37h-.36a.53.53,0,0,1-.19,0,.18.18,0,0,1-.09-.15l-.09-.43a3.05,3.05,0,0,1-.36.29,1.65,1.65,0,0,1-.36.22,1.79,1.79,0,0,1-.41.13,2.26,2.26,0,0,1-.47,0,1.59,1.59,0,0,1-.5-.08,1.08,1.08,0,0,1-.41-.22.94.94,0,0,1-.27-.38,1.3,1.3,0,0,1-.11-.54,1,1,0,0,1,.15-.53,1.27,1.27,0,0,1,.49-.45,3,3,0,0,1,.87-.32,6.19,6.19,0,0,1,1.32-.12v-.37a1.26,1.26,0,0,0-.23-.81.84.84,0,0,0-.68-.28,1.46,1.46,0,0,0-.5.08,1.35,1.35,0,0,0-.34.17l-.26.16a.37.37,0,0,1-.21.08.33.33,0,0,1-.14,0,.35.35,0,0,1-.1-.11l-.14-.26a2.57,2.57,0,0,1,.82-.55,2.5,2.5,0,0,1,1-.18,1.67,1.67,0,0,1,.69.13,1.37,1.37,0,0,1,.5.35,1.49,1.49,0,0,1,.31.55,2.26,2.26,0,0,1,.1.71Zm-2.09-.5a1.61,1.61,0,0,0,.39,0,1.85,1.85,0,0,0,.33-.12,2.61,2.61,0,0,0,.3-.2,3.15,3.15,0,0,0,.28-.25v-.95a5.19,5.19,0,0,0-.95.07,3,3,0,0,0-.63.18.89.89,0,0,0-.36.27.63.63,0,0,0-.11.35.71.71,0,0,0,.06.31.6.6,0,0,0,.16.22.46.46,0,0,0,.23.12A1,1,0,0,0,92.41,36.87Z" transform="translate(-51.36 -14.68)" fill="#1c2b39"/><path d="M97,30.69v6.68h-.81V30.69Z" transform="translate(-51.36 -14.68)" fill="#1c2b39"/><path d="M99.58,30.69v6.68h-.81V30.69Z" transform="translate(-51.36 -14.68)" fill="#1c2b39"/><path d="M102.35,31.33a.42.42,0,0,1,0,.22.57.57,0,0,1-.12.18.8.8,0,0,1-.19.13.63.63,0,0,1-.44,0,.59.59,0,0,1-.18-.13.57.57,0,0,1-.12-.18.51.51,0,0,1,0-.44.52.52,0,0,1,.12-.19.59.59,0,0,1,.18-.13.62.62,0,0,1,.44,0,.8.8,0,0,1,.19.13.52.52,0,0,1,.12.19A.42.42,0,0,1,102.35,31.33Zm-.18,1.44v4.6h-.81v-4.6Z" transform="translate(-51.36 -14.68)" fill="#1c2b39"/><path d="M103.91,37.37v-4.6h.48a.21.21,0,0,1,.22.17l.06.5a2.84,2.84,0,0,1,.67-.54,1.82,1.82,0,0,1,.86-.2,1.69,1.69,0,0,1,.66.12,1.44,1.44,0,0,1,.48.36,1.38,1.38,0,0,1,.29.55,2.26,2.26,0,0,1,.1.71v2.93h-.8V34.44a1.22,1.22,0,0,0-.24-.81.9.9,0,0,0-.73-.29,1.32,1.32,0,0,0-.67.18,2.22,2.22,0,0,0-.57.46v3.39Z" transform="translate(-51.36 -14.68)" fill="#1c2b39"/><path d="M109.36,37.37v-4.6h.48a.21.21,0,0,1,.22.17l.06.5a2.84,2.84,0,0,1,.67-.54,1.82,1.82,0,0,1,.86-.2,1.69,1.69,0,0,1,.66.12,1.44,1.44,0,0,1,.48.36,1.53,1.53,0,0,1,.3.55,2.59,2.59,0,0,1,.1.71v2.93h-.81V34.44a1.22,1.22,0,0,0-.24-.81.9.9,0,0,0-.73-.29,1.32,1.32,0,0,0-.67.18,2.22,2.22,0,0,0-.57.46v3.39Z" transform="translate(-51.36 -14.68)" fill="#1c2b39"/><path d="M118.14,37.37h-.36a.49.49,0,0,1-.19,0,.21.21,0,0,1-.1-.15l-.09-.43a4.11,4.11,0,0,1-.35.29,2.32,2.32,0,0,1-.36.22,2,2,0,0,1-.41.13,2.28,2.28,0,0,1-.48,0,1.64,1.64,0,0,1-.5-.08,1.16,1.16,0,0,1-.41-.22,1.19,1.19,0,0,1-.27-.38,1.3,1.3,0,0,1-.1-.54,1,1,0,0,1,.15-.53,1.31,1.31,0,0,1,.48-.45,3,3,0,0,1,.87-.32,6.19,6.19,0,0,1,1.32-.12v-.37a1.2,1.2,0,0,0-.23-.81.82.82,0,0,0-.67-.28,1.53,1.53,0,0,0-.85.25l-.25.16a.4.4,0,0,1-.21.08.33.33,0,0,1-.15,0,.52.52,0,0,1-.1-.11l-.14-.26a2.69,2.69,0,0,1,.82-.55,2.55,2.55,0,0,1,1-.18,1.65,1.65,0,0,1,.68.13,1.29,1.29,0,0,1,.5.35,1.49,1.49,0,0,1,.31.55,2.25,2.25,0,0,1,.11.71Zm-2.1-.5a1.51,1.51,0,0,0,.72-.16,1.57,1.57,0,0,0,.3-.2,2.18,2.18,0,0,0,.28-.25v-.95a5.08,5.08,0,0,0-.94.07,3,3,0,0,0-.64.18,1.06,1.06,0,0,0-.36.27.63.63,0,0,0-.11.35.71.71,0,0,0,.06.31.6.6,0,0,0,.16.22.55.55,0,0,0,.24.12A.92.92,0,0,0,116,36.87Z" transform="translate(-51.36 -14.68)" fill="#1c2b39"/><path d="M111.63,40.56a5.77,5.77,0,0,1-.14,1.17.43.43,0,0,1-.42.32h-.79q-.3,0-.3-.27V40.56c0-.19.1-.28.3-.28h1.06C111.53,40.28,111.63,40.37,111.63,40.56Z" transform="translate(-51.36 -14.68)" fill="#1c2b39"/></svg>