<svg width="27" height="37" viewBox="0 0 27 37" fill="none" xmlns="http://www.w3.org/2000/svg">
<path fill-rule="evenodd" clip-rule="evenodd" d="M14.5659 4.00472C14.6659 1.90472 13.1659 0.104718 11.0659 0.00471847C8.96594 -0.0952815 7.16594 1.40472 7.06594 3.50472C6.96594 5.60472 8.46594 7.40472 10.5659 7.50472C12.6659 7.70472 14.4659 6.10472 14.5659 4.00472ZM18.966 28.5047C17.866 32.0047 14.466 34.6047 10.566 34.3047C6.56598 34.0047 3.36598 30.6047 3.16598 26.6047C3.06598 24.1047 4.06598 21.8047 5.76598 20.2047C5.96598 20.0047 6.16598 19.7047 6.16598 19.4047C6.16598 18.9047 6.16598 18.4047 6.26598 17.9047C6.26598 17.7047 6.06598 17.5047 5.86598 17.6047C2.76598 19.6047 0.765976 23.2047 1.26598 27.3047C1.76598 31.8047 5.26598 35.5047 9.76598 36.1047C14.166 36.9047 18.166 34.5047 20.166 30.9047C20.266 30.7047 20.266 30.5047 20.166 30.3047C20.066 30.1047 19.9771 29.9047 19.8882 29.7047L19.8882 29.7047C19.7104 29.3047 19.5326 28.9047 19.266 28.5047C19.166 28.3047 18.966 28.4047 18.966 28.5047ZM20.5659 19.9046C20.3659 19.7046 20.1659 19.5046 19.8659 19.5046L13.9659 18.8046C13.5659 18.7046 13.3659 18.4046 13.3659 18.0046C13.3659 17.1785 13.3754 16.4093 13.3842 15.6969C13.4392 11.2354 13.4666 9.00464 10.9659 9.00464C9.86593 9.00464 9.36593 9.00464 8.66593 9.50464C3.76593 13.0046 0.965929 15.8046 0.0659294 16.9046C-0.0340706 17.1046 -0.0340702 17.4046 0.16593 17.6046L1.56593 18.6046C1.76593 18.7046 1.96593 18.7046 2.16593 18.5046C2.76593 17.9046 5.06593 15.9046 7.56593 14.0046C7.66593 14.0046 7.86593 14.0046 7.86593 14.2046C7.86593 14.4149 7.84789 14.7423 7.82265 15.2005C7.76384 16.2682 7.66593 18.0458 7.66593 20.7046C7.66593 22.8046 8.66593 23.0046 9.96593 23.0046H18.0659C20.4568 26.4474 21.933 30.256 22.6696 32.1564C22.7033 32.2432 22.7354 32.326 22.7659 32.4046C22.9659 32.8046 23.2659 33.1046 23.6659 32.9046C24.0659 32.7046 25.9659 31.6046 25.9659 31.6046C26.1659 31.5046 26.2659 31.2046 26.1659 30.9046C25.8951 30.4231 25.5427 29.6064 25.1033 28.5882C24.0828 26.2232 22.5932 22.7707 20.5659 19.9046Z" fill="white"/>
</svg>
