<svg width="44" height="38" viewBox="0 0 44 38" fill="none" xmlns="http://www.w3.org/2000/svg">
<path fill-rule="evenodd" clip-rule="evenodd" d="M31.3 19.2266C34.3 20.4266 36.5 23.0266 37 26.2266C37.1 27.0266 36.4 27.6266 35.7 27.3266L2 14.5266C1.5 14.3266 1.2 13.9266 1.1 13.3266L0 3.4266C0 3.2266 0.2 3.0266 0.4 3.1266L1.3 3.4266C1.7 3.5266 2 3.7266 2.2 4.1266L4.6 8.9266C4.6 8.99327 4.68889 9.05993 4.77778 9.1266C4.82222 9.15993 4.86667 9.19326 4.9 9.2266L12.1 11.9266C12.3 12.0266 12.5 11.8266 12.5 11.6266L11.3 0.326599C11.3 0.126599 11.5 -0.0734014 11.7 0.0265986L13.1 0.426599C13.5 0.526599 13.8 0.726599 14 1.1266L21.1 15.1266C21.1 15.1933 21.1889 15.2599 21.2778 15.3266C21.3222 15.3599 21.3667 15.3933 21.4 15.4266L31.3 19.2266ZM2.30005 35.7267V36.7267C2.30005 37.0267 2.50005 37.3267 2.90005 37.3267H42.9001C43.2001 37.3267 43.5 37.0267 43.5 36.7267V35.7267C43.5 35.4267 43.2001 35.1267 42.9001 35.1267H2.90005C2.60005 35.1267 2.30005 35.4267 2.30005 35.7267Z" fill="white"/>
</svg>
