<svg width="29" height="27" viewBox="0 0 29 27" fill="none" xmlns="http://www.w3.org/2000/svg">
<path d="M24.9002 6H21.3002C21.1002 6 20.9002 5.8 20.9002 5.6V4.6C20.9002 2 18.8002 0 16.3002 0H12.2002C9.60024 0 7.60024 2.1 7.60024 4.6V5.6C7.60024 5.8 7.40024 6 7.20024 6H3.40024C1.50024 6 0.000244141 7.5 0.000244141 9.4V23C0.000244141 24.9 1.50024 26.4 3.40024 26.4H25.1002C27.0002 26.4 28.5002 24.9 28.5002 23V9.4C28.3002 7.5 26.7002 6 24.9002 6ZM9.90024 6C9.70024 6 9.50024 5.8 9.50024 5.6V4.6C9.50024 3.2 10.6002 2.1 12.0002 2.1H16.1002C17.5002 2.1 18.6002 3.2 18.6002 4.6V5.6C18.6002 5.8 18.4002 6 18.2002 6H9.90024Z" fill="#212D39"/>
</svg>
