<svg width="33" height="32" viewBox="0 0 33 32" fill="none" xmlns="http://www.w3.org/2000/svg">
<path fill-rule="evenodd" clip-rule="evenodd" d="M13.5968 8.3574C15.6968 9.5574 18.3968 8.7574 19.5968 6.5574C20.7968 4.4574 19.9968 1.7574 17.7968 0.557404C15.6968 -0.642596 12.9968 0.157403 11.7968 2.3574C10.6968 4.5574 11.4968 7.2574 13.5968 8.3574ZM25.1967 26.5574H22.3967C21.8967 26.5574 21.3967 26.9574 21.3967 27.5574V30.3574C21.3967 30.8574 21.7967 31.3574 22.3967 31.3574H25.1967C25.6967 31.3574 26.1967 30.9574 26.1967 30.3574V27.4574C26.1967 26.9574 25.7967 26.5574 25.1967 26.5574ZM28.6968 26.5574H31.4968C31.9968 26.5574 32.4968 26.9574 32.4968 27.4574V30.3574C32.4968 30.9574 31.9968 31.3574 31.4968 31.3574H28.6968C28.0968 31.3574 27.6968 30.8574 27.6968 30.3574V27.5574C27.6968 26.9574 28.1968 26.5574 28.6968 26.5574ZM26.1967 21.2574V24.0574C26.1967 24.5574 25.7967 25.0574 25.1967 25.0574H22.3967C21.8967 25.0574 21.3967 24.6574 21.3967 24.0574V21.2574C21.3967 20.7574 21.7967 20.2574 22.3967 20.2574H25.1967C25.7967 20.2574 26.1967 20.6574 26.1967 21.2574ZM14.5966 10.7574L12.1966 9.35742C11.3966 8.95742 10.9966 9.55742 10.9966 9.65742L4.09657 21.4574C2.89657 24.3574 4.39657 25.7574 5.89657 26.3574L9.99657 27.7574C9.99657 27.7574 7.59657 27.6574 6.09657 27.6574C4.59657 27.5574 2.09657 27.7574 2.09657 27.7574C1.59657 27.7574 1.19657 27.8574 0.896575 28.4574L0.0965744 30.1574C-0.103426 30.7574 -0.00342599 31.0574 0.496574 31.0574C0.496574 31.0574 2.39657 30.8574 6.59657 30.8574C10.7966 30.8574 13.5966 31.0574 13.5966 31.0574C15.3966 31.2574 16.2966 30.6574 16.2966 28.6574C16.2966 27.1148 14.0734 25.4075 12.3168 24.0586C12.1376 23.9209 11.9632 23.787 11.7966 23.6574C11.0966 23.0574 10.7966 22.3574 11.4966 21.0574L13.5966 17.4574C13.5966 17.4574 14.2966 19.5574 17.8966 25.6574C17.9966 25.8574 18.3966 25.8574 18.5966 25.6574L19.8966 24.6574C20.1966 24.4574 20.2966 24.0574 20.0966 23.7574C18.2966 20.4574 17.5966 18.7574 16.6966 16.1574C16.3991 15.3841 16.1017 14.3276 15.8253 13.346C15.6371 12.6774 15.4586 12.0436 15.2966 11.5574C15.1966 11.2574 14.8966 10.9574 14.5966 10.7574Z" fill="white"/>
</svg>
