<svg width="44" height="30" viewBox="0 0 44 30" fill="none" xmlns="http://www.w3.org/2000/svg">
<path fill-rule="evenodd" clip-rule="evenodd" d="M34.3001 1.3C37.3001 -2.38419e-07 40.7001 0.300001 43.3001 2.2C43.9001 2.6 43.8001 3.5 43.0001 4L10.2001 18.7C9.7001 18.9 9.1001 18.8 8.7001 18.5L1.0001 12.4C0.800097 12.3 0.800097 12 1.0001 11.9L1.9001 11.4C2.3001 11.2 2.7001 11.2 3.1001 11.3L8.2001 12.9C8.3001 13 8.5001 13 8.6001 12.9L15.6001 9.8C15.8001 9.7 15.9001 9.4 15.7001 9.3L6.8001 2.2C6.6001 2.1 6.6001 1.8 6.8001 1.7L8.1001 1C8.5001 0.799999 8.9001 0.799999 9.3001 0.899999L24.2001 5.7C24.3001 5.8 24.5001 5.8 24.6001 5.7L34.3001 1.3ZM0.800049 28.4001V29.4001C0.800049 29.7001 1.00005 30 1.40005 30H41.4001C41.7001 30 42 29.7001 42 29.4001V28.4001C42 28.1001 41.7001 27.8 41.4001 27.8H1.40005C1.10005 27.8 0.800049 28.1001 0.800049 28.4001Z" fill="#FFFFFF"/>
</svg>
