<svg width="21" height="30" viewBox="0 0 21 30" fill="none" xmlns="http://www.w3.org/2000/svg">
<path d="M9.39995 0.900024C11.2999 0.900024 13 1.10003 14.4 1.60003C15.8 2.10003 17 2.70002 17.9 3.50002C18.8 4.30002 19.5 5.30002 20 6.40002C20.4 7.50002 20.7 8.80002 20.7 10.1C20.7 11.5 20.5 12.8 20 14C19.5 15.2 18.8 16.2 17.9 17C17 17.8 15.8 18.5 14.4 19C13 19.5 11.4 19.7 9.49995 19.7H6.49995C5.89995 19.7 5.49995 20.2 5.49995 20.7V28.5C5.49995 29.2 4.89995 29.8 4.19995 29.8H1.49995C0.79995 29.8 0.199951 29.2 0.199951 28.5V2.20002C0.199951 1.50002 0.79995 0.900024 1.49995 0.900024H9.39995ZM9.39995 15.4C10.4 15.4 11.2 15.3 12 15C12.7 14.8 13.2999 14.4 13.7999 13.9C14.2999 13.4 14.6 12.9 14.9 12.2C15.2 11.5 15.2999 10.8 15.2999 10C15.2999 9.20002 15.2 8.50002 14.9 7.90002C14.6 7.30002 14.2999 6.70002 13.7999 6.30002C13.2999 5.90002 12.7 5.50002 12 5.30002C11.3 5.10002 10.4 5.00002 9.39995 5.00002H6.39995C5.79995 5.00002 5.39995 5.50002 5.39995 6.00002V14.4C5.39995 15 5.89995 15.4 6.39995 15.4H9.39995Z" fill="white"/>
</svg>
